<svg xmlns="http://www.w3.org/2000/svg" style="display:none">
  <symbol id="i-router" viewBox="0 0 24 24"><path d="M10.59 1L9.17 2.41 12.76 6H3a1 1 0 0 0-1 1v10a1 1 0 0 0 1 1h18a1 1 0 0 0 1-1V7a1 1 0 0 0-1-1h-9.76l3.59-3.59L13.41 1 10.59 1M5 9h2v2H5V9m4 0h2v2H9V9m4 0h2v2h-2V9m-8 8a1 1 0 1 1 0-2 1 1 0 0 1 0 2m14 0a1 1 0 1 1 0-2 1 1 0 0 1 0 2z"/></symbol>
  <symbol id="i-usb" viewBox="0 0 24 24"><path d="M15 7v4h1v2h-3V5l-2.5 2.5L8 5v8H5v-2h1V7H4l-1 3H2v2h1l1 1h3v2h2v-2h1v2h2v-2h1l1-1h1v-2h-1V7h-2z"/></symbol>
  <symbol id="i-gps-fixed" viewBox="0 0 24 24"><path d="M12 8a4 4 0 0 1 4 4 4 4 0 0 1-4 4 4 4 0 0 1-4-4 4 4 0 0 1 4-4m0-6v2.29A8 8 0 0 1 19.71 12H22v2h-2.29A8 8 0 0 1 12 21.71V24h-2v-2.29A8 8 0 0 1 2.29 14H0v-2h2.29A8 8 0 0 1 10 2.29V0h2M12 4a8 8 0 0 0-8 8 8 8 0 0 0 8 8 8 8 0 0 0 8-8 8 8 0 0 0-8-8z"/></symbol>
  <symbol id="i-gps-not-fixed" viewBox="0 0 24 24"><path d="M12 8a4 4 0 0 1 4 4 4 4 0 0 1-4 4 4 4 0 0 1-4-4 4 4 0 0 1 4-4m0-6v2.29A8 8 0 0 1 19.71 12H22v2h-2.29A8 8 0 0 1 12 21.71V24h-2v-2.29A8 8 0 0 1 2.29 14H0v-2h2.29A8 8 0 0 1 10 2.29V0h2M12 4a8 8 0 0 0-8 8 8 8 0 0 0 8 8 8 8 0 0 0 8-8 8 8 0 0 0-8-8z" opacity=".4"/></symbol>
  <symbol id="i-battery" viewBox="0 0 24 24"><path d="M15.67 4H14V2h-4v2H8.33C7.6 4 7 4.6 7 5.33v15.33C7 21.4 7.6 22 8.33 22h7.33c.74 0 1.34-.6 1.34-1.33V5.33C17 4.6 16.4 4 15.67 4zM13 18h-2v-2h2v2zm0-4h-2v-4h2v4zm0-6h-2V6h2v2z"/></symbol>
  <symbol id="i-bolt" viewBox="0 0 24 24"><path d="M11 21h-1l1-7H7.5c-.58 0-.57-.32-.38-.66.19-.34.05-.08.07-.12C8.48 10.94 10.42 7.54 13 3h1l-1 7h3.5c.49 0 .56.33.47.51l-.07.15C12.96 17.55 11 21 11 21z"/></symbol>
  <symbol id="i-sync" viewBox="0 0 24 24"><path d="M18 12l4-4-4-4v3H3v2h15v3zm-12 0L2 16l4 4v-3h15v-2H6v-3z"/></symbol>
  <symbol id="i-home" viewBox="0 0 24 24"><path d="M10 20v-6h4v6h5v-8h3L12 3 2 12h3v8z"/></symbol>
  <symbol id="i-forum" viewBox="0 0 24 24"><path d="M15 4v7H5.17L4 12.17V4h11m1-2H3a1 1 0 0 0-1 1v14l4-4h10a1 1 0 0 0 1-1V3a1 1 0 0 0-1-1zm5 4h-2v9H6v2a1 1 0 0 0 1 1h11l4 4V7a1 1 0 0 0-1-1z"/></symbol>
  <symbol id="i-map" viewBox="0 0 24 24"><path d="M20.5 3l-.16.03L15 5.1 9 3 3.36 4.9c-.21.07-.36.25-.36.48V20.5c0 .28.22.5.5.5l.16-.03L9 18.9l6 2.1 5.64-1.9c.21-.07.36-.25.36-.48V3.5c0-.28-.22-.5-.5-.5zM15 19l-6-2.11V5l6 2.11V19z"/></symbol>
  <symbol id="i-memory" viewBox="0 0 24 24"><path d="M15 9H9v6h6V9zm-2 4h-2v-2h2v2zm8-2V9h-2V7c0-1.1-.9-2-2-2h-2V3h-2v2h-2V3H9v2H7C5.9 5 5 5.9 5 7v2H3v2h2v2H3v2h2v2c0 1.1.9 2 2 2h2v2h2v-2h2v2h2v-2h2c1.1 0 2-.9 2-2v-2h2v-2h-2v-2h2zm-4 6H7V7h10v10z"/></symbol>
  <symbol id="i-settings" viewBox="0 0 24 24"><path d="M19.14 12.94c.04-.3.06-.61.06-.94 0-.32-.02-.64-.07-.94l2.03-1.58c.18-.14.23-.41.12-.61l-1.92-3.32c-.12-.22-.37-.29-.59-.22l-2.39.96c-.5-.38-1.03-.7-1.62-.94l-.36-2.54c-.04-.24-.24-.41-.48-.41h-3.84c-.24 0-.43.17-.47.41l-.36 2.54c-.59.24-1.13.57-1.62.94l-2.39-.96c-.22-.08-.47 0-.59.22L2.74 8.87c-.12.21-.08.47.12.61l2.03 1.58c-.05.3-.09.63-.09.94s.02.64.07.94l-2.03 1.58c-.18.14-.23.41-.12.61l1.92 3.32c.12.22.37.29.59.22l2.39-.96c.5.38 1.03.7 1.62.94l.36 2.54c.05.24.24.41.48.41h3.84c.24 0 .44-.17.47-.41l.36-2.54c.59-.24 1.13-.56 1.62-.94l2.39.96c.22.08.47 0 .59-.22l1.92-3.32c.12-.22.07-.47-.12-.61l-2.01-1.58zM12 15.6c-1.98 0-3.6-1.62-3.6-3.6s1.62-3.6 3.6-3.6 3.6 1.62 3.6 3.6-1.62 3.6-3.6 3.6z"/></symbol>
  <symbol id="i-remote" viewBox="0 0 24 24"><path d="M19.35 10.04A7.49 7.49 0 0 0 12 4C9.11 4 6.6 5.64 5.35 8.04A5.994 5.994 0 0 0 0 14c0 3.31 2.69 6 6 6h13c2.76 0 5-2.24 5-5 0-2.64-2.05-4.78-4.65-4.96zM19 18H6c-2.21 0-4-1.79-4-4 0-2.05 1.53-3.76 3.56-3.97l1.07-.11.5-.95A5.469 5.469 0 0 1 12 6c2.62 0 4.88 1.86 5.39 4.43l.3 1.5 1.53.11A2.98 2.98 0 0 1 22 15c0 1.65-1.35 3-3 3z"/></symbol>
  <symbol id="i-temp" viewBox="0 0 24 24"><path d="M15 13.12V5c0-1.66-1.34-3-3-3S9 3.34 9 5v8.12A4.946 4.946 0 0 0 7 17c0 2.76 2.24 5 5 5s5-2.24 5-5c0-1.68-.83-3.17-2-4.06-.3-.21-.59-.4-.9-.54zM11 5c0-.55.45-1 1-1s1 .45 1 1v1h-2V5zm2 9.29V16h-2v-1.71A3.008 3.008 0 0 1 9 11h1c0 1.1.9 2 2 2s2-.9 2-2h1c0 1.56-.86 2.96-2 3.29z"/></symbol>
  <symbol id="i-storage" viewBox="0 0 24 24"><path d="M2 20h20v-4H2v4zm2-3h2v2H4v-2zM2 4v4h20V4H2zm4 3H4V5h2v2zm-4 7h20v-4H2v4zm2-3h2v2H4v-2z"/></symbol>
  <symbol id="i-clock" viewBox="0 0 24 24"><path d="M11.99 2C6.47 2 2 6.48 2 12s4.47 10 9.99 10C17.52 22 22 17.52 22 12S17.52 2 11.99 2zM12 20c-4.42 0-8-3.58-8-8s3.58-8 8-8 8 3.58 8 8-3.58 8-8 8zm.5-13H11v6l5.25 3.15.75-1.23-4.5-2.67V7z"/></symbol>
  <symbol id="i-back" viewBox="0 0 24 24"><path d="M20 11H7.83l5.59-5.59L12 4l-8 8 8 8 1.41-1.41L7.83 13H20v-2z"/></symbol>
  <symbol id="i-send" viewBox="0 0 24 24"><path d="M2.01 21L23 12 2.01 3 2 10l15 2-15 2z"/></symbol>
  <symbol id="i-refresh" viewBox="0 0 24 24"><path d="M17.65 6.35A7.958 7.958 0 0 0 12 4c-4.42 0-7.99 3.58-7.99 8s3.57 8 7.99 8c3.73 0 6.84-2.55 7.73-6h-2.08A5.99 5.99 0 0 1 12 18c-3.31 0-6-2.69-6-6s2.69-6 6-6c1.66 0 3.14.69 4.22 1.78L13 11h7V4l-2.35 2.35z"/></symbol>
  <symbol id="i-layers" viewBox="0 0 24 24"><path d="M11.99 18.54l-7.37-5.73L3 14.07l9 7 9-7-1.63-1.27-7.38 5.74zM12 16l7.36-5.73L21 9l-9-7-9 7 1.63 1.27L12 16z"/></symbol>
  <symbol id="i-location" viewBox="0 0 24 24"><path d="M12 8c-2.21 0-4 1.79-4 4s1.79 4 4 4 4-1.79 4-4-1.79-4-4-4zm8.94 3A8.994 8.994 0 0 0 13 3.06V1h-2v2.06A8.994 8.994 0 0 0 3.06 11H1v2h2.06A8.994 8.994 0 0 0 11 20.94V23h2v-2.06A8.994 8.994 0 0 0 20.94 13H23v-2h-2.06zM12 19c-3.87 0-7-3.13-7-7s3.13-7 7-7 7 3.13 7 7-3.13 7-7 7z"/></symbol>
  <symbol id="i-check" viewBox="0 0 24 24"><path d="M12 2C6.48 2 2 6.48 2 12s4.48 10 10 10 10-4.48 10-10S17.52 2 12 2zm-2 15l-5-5 1.41-1.41L10 14.17l7.59-7.59L19 8l-9 9z"/></symbol>
  <symbol id="i-warn" viewBox="0 0 24 24"><path d="M1 21h22L12 2 1 21zm12-3h-2v-2h2v2zm0-4h-2v-4h2v4z"/></symbol>
  <symbol id="i-error" viewBox="0 0 24 24"><path d="M12 2C6.48 2 2 6.48 2 12s4.48 10 10 10 10-4.48 10-10S17.52 2 12 2zm1 15h-2v-2h2v2zm0-4h-2V7h2v6z"/></symbol>
</svg>
